<?xml version="1.0" encoding="UTF-8"?>
<svg id="_레이어_2" data-name="레이어 2" xmlns="http://www.w3.org/2000/svg" viewBox="0 0 58.71 32.97">
  <defs>
    <style>
      .cls-1, .cls-2, .cls-3, .cls-4 {
        stroke-width: 0px;
      }

      .cls-2 {
        fill: #221f1f;
      }

      .cls-3 {
        fill: #0075c2;
      }

      .cls-4 {
        fill: #d80c18;
      }
    </style>
  </defs>
  <g id="_레이어_1-2" data-name="레이어 1">
    <g>
      <rect class="cls-3" x="23.58" y="14.06" width="4.06" height="10.53"/>
      <polygon class="cls-3" points="45.88 12.84 45.88 24.59 41.78 24.59 41.78 12.84 38.59 12.84 38.59 8.86 49.07 8.86 49.07 12.84 45.88 12.84"/>
      <rect class="cls-3" x="50.48" y="14.06" width="4.06" height="10.53"/>
      <path class="cls-3" d="m28.16,10.8c0,1.42-1.15,2.57-2.57,2.57s-2.58-1.15-2.58-2.57,1.15-2.57,2.58-2.57,2.57,1.15,2.57,2.57"/>
      <path class="cls-4" d="m23.75,27.45c8.11-3.24,15.75-7.56,15.75-10.79,0-1.63-1.06-2.59-3.79-2.92-1.76-.22-3.78-.04-3.42-1.63.35-1.55,4.3-2.99,6.3-3.25v-3.2c-5.33,1.83-10.11,4.19-10.11,7.64,0,1.66.99,3.38,3.79,3.63,2.69.24,3.26.98,3.26,2.01,0,2.02-5.04,5.26-11.78,8.5"/>
      <path class="cls-3" d="m55.05,10.8c0,1.42-1.15,2.57-2.57,2.57s-2.57-1.15-2.57-2.57,1.15-2.57,2.57-2.57,2.57,1.15,2.57,2.57"/>
      <path class="cls-3" d="m3.06,30.12c-1.64-2.99,5.85-9.66,5.85-9.66C1.81,25.64-.9,29.69.26,31.64c1.34,2.27,9.35,1.94,21.46-3.36-9.73,3.78-17.45,4.04-18.65,1.84"/>
      <path class="cls-3" d="m58.48,1.61c-2.15-3.53-13.93-1.26-29.85,6.98C42.09,2.47,54.04-.07,56.33,3.1c.75,1.05.47,3.1-1.29,5.67,1.52-1.48,4.53-5.39,3.44-7.17"/>
      <polygon class="cls-3" points="10.04 24.59 10.04 8.86 14.11 8.86 14.11 15.86 17.52 8.86 22.22 8.86 18.4 16.03 22.31 24.59 17.78 24.59 14.11 16.21 14.11 24.59 10.04 24.59"/>
      <polygon class="cls-1" points="25.85 27.91 26.51 27.91 26.81 29.73 26.82 29.73 27.14 27.91 27.85 27.91 28.19 29.73 28.2 29.73 28.51 27.91 29.14 27.91 28.59 30.47 27.84 30.47 27.5 28.65 27.49 28.65 27.17 30.47 26.41 30.47 25.85 27.91"/>
      <polygon class="cls-1" points="29.21 27.91 29.87 27.91 30.17 29.73 30.18 29.73 30.5 27.91 31.21 27.91 31.55 29.73 31.56 29.73 31.87 27.91 32.5 27.91 31.95 30.47 31.2 30.47 30.86 28.65 30.85 28.65 30.53 30.47 29.77 30.47 29.21 27.91"/>
      <polygon class="cls-1" points="32.57 27.91 33.23 27.91 33.53 29.73 33.54 29.73 33.86 27.91 34.57 27.91 34.91 29.73 34.92 29.73 35.23 27.91 35.86 27.91 35.31 30.47 34.56 30.47 34.22 28.65 34.21 28.65 33.89 30.47 33.12 30.47 32.57 27.91"/>
      <rect class="cls-1" x="35.97" y="29.73" width=".63" height=".75"/>
      <polygon class="cls-1" points="37.76 27.07 37.76 28.86 37.77 28.86 38.44 27.91 39.16 27.91 38.42 28.92 39.27 30.47 38.55 30.47 38 29.42 37.76 29.72 37.76 30.47 37.11 30.47 37.11 27.07 37.76 27.07"/>
      <path class="cls-1" d="m39.49,27.91h.66v2.57h-.66v-2.57Zm0-.87h.66v.56h-.66v-.56Z"/>
      <path class="cls-2" d="m41.09,29.63v.08c0,.22.12.37.35.37.2,0,.33-.1.33-.3,0-.17-.11-.25-.24-.29l-.46-.17c-.36-.13-.55-.35-.55-.72,0-.42.27-.77.95-.77.6,0,.88.27.88.73v.11h-.59c0-.26-.08-.39-.29-.39-.17,0-.31.1-.31.28,0,.13.07.23.29.3l.4.14c.41.14.57.34.57.73,0,.54-.4.81-.96.81-.74,0-.94-.32-.94-.82v-.09h.59Z"/>
      <path class="cls-1" d="m42.87,27.17h.66v.73h.38v.45h-.38v1.39c0,.2.04.28.24.28.05,0,.1,0,.14,0v.46c-.14.01-.28.03-.43.03-.52,0-.61-.16-.61-.68v-1.47h-.33v-.45h.33v-.73Z"/>
      <path class="cls-1" d="m44.17,27.91h.66v2.57h-.66v-2.57Zm0-.87h.66v.56h-.66v-.56Z"/>
      <rect class="cls-1" x="45.33" y="29.73" width=".63" height=".75"/>
      <path class="cls-1" d="m46.43,27.91h.63v.35h.01c.13-.25.32-.41.59-.41.04,0,.08,0,.12,0v.63c-.07,0-.14,0-.21,0-.23,0-.49.12-.49.46v1.54h-.66v-2.57Z"/>
      <path class="cls-1" d="m48.59,28.9v-.1c0-.24.08-.51.34-.51.28,0,.32.22.34.61h-.67Zm1.3.39v-.15c0-.79-.17-1.3-.94-1.3-.89,0-1.02.64-1.02,1.33,0,.64.04,1.37.99,1.37.62,0,.91-.33.93-.93h-.59c-.04.32-.13.48-.35.48-.24,0-.32-.3-.32-.6v-.2h1.3Z"/>
      <rect class="cls-1" x="50.27" y="29.73" width=".63" height=".75"/>
      <polygon class="cls-1" points="52.06 27.07 52.06 28.86 52.07 28.86 52.73 27.91 53.46 27.91 52.72 28.92 53.57 30.47 52.84 30.47 52.29 29.42 52.06 29.72 52.06 30.47 51.4 30.47 51.4 27.07 52.06 27.07"/>
      <path class="cls-1" d="m53.76,27.91h.63v.35h.01c.13-.25.32-.41.59-.41.04,0,.08,0,.12,0v.63c-.06,0-.14,0-.2,0-.23,0-.49.12-.49.46v1.54h-.66v-2.57Z"/>
    </g>
  </g>
</svg>